<svg width="377" height="123" viewBox="0 0 377 123" fill="none" xmlns="http://www.w3.org/2000/svg">
<path d="M44.256 45.696C45.6 45.696 46.688 46.144 47.52 47.04C48.416 47.936 48.864 49.024 48.864 50.304V75.84C48.864 82.496 47.008 87.68 43.296 91.392C39.648 95.04 34.464 96.864 27.744 96.864C21.088 96.864 15.936 95.04 12.288 91.392C8.64 87.68 6.816 82.496 6.816 75.84V50.304C6.816 49.024 7.232 47.936 8.064 47.04C8.96 46.144 10.048 45.696 11.328 45.696C12.672 45.696 13.76 46.144 14.592 47.04C15.488 47.936 15.936 49.024 15.936 50.304V75.84C15.936 84.224 19.872 88.416 27.744 88.416C31.648 88.416 34.624 87.36 36.672 85.248C38.72 83.136 39.744 80 39.744 75.84V50.304C39.744 49.024 40.16 47.936 40.992 47.04C41.888 46.144 42.976 45.696 44.256 45.696ZM87.7515 44.832C92.1035 44.832 96.0395 45.952 99.5595 48.192C103.08 50.368 105.832 53.44 107.816 57.408C109.864 61.376 110.888 65.856 110.888 70.848C110.888 75.84 109.864 80.32 107.816 84.288C105.832 88.192 103.08 91.264 99.5595 93.504C96.0395 95.744 92.1675 96.864 87.9435 96.864C84.6155 96.864 81.5115 96.128 78.6315 94.656C75.7515 93.184 73.4155 91.392 71.6235 89.28V110.592C71.6235 111.872 71.1755 112.96 70.2795 113.856C69.4475 114.752 68.3595 115.2 67.0155 115.2C65.7355 115.2 64.6475 114.752 63.7515 113.856C62.9195 113.024 62.5035 111.936 62.5035 110.592V50.208C62.5035 48.864 62.9195 47.744 63.7515 46.848C64.5835 45.952 65.6715 45.504 67.0155 45.504C68.3595 45.504 69.4475 45.952 70.2795 46.848C71.1755 47.744 71.6235 48.864 71.6235 50.208V52.992C73.1595 50.752 75.3995 48.832 78.3435 47.232C81.2875 45.632 84.4235 44.832 87.7515 44.832ZM86.6955 88.416C89.6395 88.416 92.2955 87.648 94.6635 86.112C97.0315 84.576 98.8555 82.496 100.136 79.872C101.48 77.184 102.152 74.176 102.152 70.848C102.152 67.52 101.48 64.544 100.136 61.92C98.8555 59.232 97.0315 57.12 94.6635 55.584C92.2955 54.048 89.6395 53.28 86.6955 53.28C83.6875 53.28 80.9995 54.048 78.6315 55.584C76.2635 57.056 74.4075 59.136 73.0635 61.824C71.7835 64.512 71.1435 67.52 71.1435 70.848C71.1435 74.176 71.7835 77.184 73.0635 79.872C74.4075 82.56 76.2635 84.672 78.6315 86.208C80.9995 87.68 83.6875 88.416 86.6955 88.416ZM162.272 24.96C163.616 24.96 164.704 25.408 165.536 26.304C166.432 27.136 166.88 28.224 166.88 29.568V91.392C166.88 92.672 166.432 93.76 165.536 94.656C164.704 95.552 163.616 96 162.272 96C160.928 96 159.84 95.584 159.008 94.752C158.176 93.856 157.76 92.736 157.76 91.392V88.704C156.16 91.008 153.888 92.96 150.944 94.56C148.064 96.16 144.96 96.96 141.632 96.96C137.28 96.96 133.344 95.84 129.824 93.6C126.304 91.36 123.52 88.256 121.472 84.288C119.424 80.256 118.4 75.744 118.4 70.752C118.4 65.76 119.392 61.28 121.376 57.312C123.424 53.28 126.208 50.144 129.728 47.904C133.248 45.664 137.12 44.544 141.344 44.544C144.736 44.544 147.872 45.248 150.752 46.656C153.632 48.064 155.968 49.888 157.76 52.128V29.568C157.76 28.224 158.176 27.136 159.008 26.304C159.84 25.408 160.928 24.96 162.272 24.96ZM142.688 88.512C145.696 88.512 148.352 87.744 150.656 86.208C153.024 84.672 154.848 82.56 156.128 79.872C157.472 77.184 158.144 74.144 158.144 70.752C158.144 67.424 157.472 64.416 156.128 61.728C154.848 58.976 153.024 56.832 150.656 55.296C148.352 53.76 145.696 52.992 142.688 52.992C139.68 52.992 136.992 53.76 134.624 55.296C132.32 56.832 130.496 58.976 129.152 61.728C127.872 64.416 127.232 67.424 127.232 70.752C127.232 74.144 127.872 77.184 129.152 79.872C130.496 82.56 132.32 84.672 134.624 86.208C136.992 87.744 139.68 88.512 142.688 88.512ZM205.497 44.544C207.161 44.544 208.601 44.992 209.817 45.888C211.033 46.72 211.641 47.776 211.641 49.056C211.641 50.592 211.225 51.776 210.393 52.608C209.625 53.376 208.665 53.76 207.513 53.76C206.937 53.76 206.073 53.568 204.921 53.184C203.577 52.736 202.521 52.512 201.753 52.512C199.769 52.512 197.817 53.216 195.897 54.624C194.041 55.968 192.505 57.856 191.289 60.288C190.137 62.656 189.561 65.312 189.561 68.256V91.392C189.561 92.672 189.113 93.76 188.217 94.656C187.385 95.552 186.297 96 184.953 96C183.609 96 182.521 95.584 181.689 94.752C180.857 93.856 180.441 92.736 180.441 91.392V50.304C180.441 49.024 180.857 47.936 181.689 47.04C182.585 46.144 183.673 45.696 184.953 45.696C186.297 45.696 187.385 46.144 188.217 47.04C189.113 47.936 189.561 49.024 189.561 50.304V55.2C190.969 52.064 193.081 49.536 195.897 47.616C198.713 45.632 201.913 44.608 205.497 44.544ZM259.772 45.024C261.116 45.024 262.204 45.472 263.036 46.368C263.932 47.2 264.38 48.32 264.38 49.728V91.392C264.38 92.672 263.932 93.76 263.036 94.656C262.204 95.552 261.116 96 259.772 96C258.428 96 257.34 95.584 256.508 94.752C255.676 93.856 255.26 92.736 255.26 91.392V88.896C253.596 91.136 251.324 93.056 248.444 94.656C245.564 96.192 242.46 96.96 239.132 96.96C234.78 96.96 230.812 95.84 227.228 93.6C223.708 91.36 220.924 88.256 218.876 84.288C216.892 80.256 215.9 75.744 215.9 70.752C215.9 65.76 216.892 61.28 218.876 57.312C220.924 53.28 223.708 50.144 227.228 47.904C230.748 45.664 234.62 44.544 238.844 44.544C242.236 44.544 245.372 45.248 248.252 46.656C251.196 48.064 253.532 49.856 255.26 52.032V49.728C255.26 48.384 255.676 47.264 256.508 46.368C257.34 45.472 258.428 45.024 259.772 45.024ZM240.188 88.512C243.196 88.512 245.852 87.744 248.156 86.208C250.524 84.672 252.348 82.56 253.628 79.872C254.972 77.184 255.644 74.144 255.644 70.752C255.644 67.424 254.972 64.416 253.628 61.728C252.348 59.04 250.524 56.928 248.156 55.392C245.852 53.792 243.196 52.992 240.188 52.992C237.18 52.992 234.492 53.76 232.124 55.296C229.82 56.832 227.996 58.944 226.652 61.632C225.372 64.32 224.732 67.36 224.732 70.752C224.732 74.144 225.372 77.184 226.652 79.872C227.996 82.56 229.82 84.672 232.124 86.208C234.492 87.744 237.18 88.512 240.188 88.512ZM319.029 88.032C319.989 89.056 320.469 90.176 320.469 91.392C320.469 92.672 319.957 93.76 318.933 94.656C317.973 95.488 316.949 95.904 315.861 95.904C314.453 95.904 313.333 95.392 312.501 94.368L293.589 74.304L287.829 79.488V91.392C287.829 92.672 287.381 93.76 286.485 94.656C285.653 95.552 284.597 96 283.317 96C281.973 96 280.853 95.552 279.957 94.656C279.125 93.76 278.709 92.672 278.709 91.392V29.568C278.709 28.288 279.125 27.2 279.957 26.304C280.853 25.408 281.973 24.96 283.317 24.96C284.597 24.96 285.653 25.408 286.485 26.304C287.381 27.2 287.829 28.288 287.829 29.568V68.544L311.349 46.944C312.437 45.984 313.557 45.504 314.709 45.504C315.797 45.504 316.789 45.984 317.685 46.944C318.581 47.84 319.029 48.8 319.029 49.824C319.029 51.104 318.421 52.256 317.205 53.28L300.597 68.064L319.029 88.032ZM373.195 68.928C373.131 70.08 372.651 71.072 371.755 71.904C370.859 72.672 369.803 73.056 368.587 73.056H334.795C335.243 77.728 337.003 81.472 340.075 84.288C343.211 87.104 347.019 88.512 351.499 88.512C354.571 88.512 357.067 88.064 358.987 87.168C360.907 86.272 362.603 85.12 364.075 83.712C365.035 83.136 365.963 82.848 366.859 82.848C367.947 82.848 368.843 83.232 369.547 84C370.315 84.768 370.699 85.664 370.699 86.688C370.699 88.032 370.059 89.248 368.779 90.336C366.923 92.192 364.459 93.76 361.387 95.04C358.315 96.32 355.179 96.96 351.979 96.96C346.795 96.96 342.219 95.872 338.251 93.696C334.347 91.52 331.307 88.48 329.131 84.576C327.019 80.672 325.963 76.256 325.963 71.328C325.963 65.952 327.051 61.248 329.227 57.216C331.467 53.12 334.379 49.984 337.963 47.808C341.611 45.632 345.515 44.544 349.675 44.544C353.771 44.544 357.611 45.6 361.195 47.712C364.779 49.824 367.659 52.736 369.835 56.448C372.011 60.16 373.131 64.32 373.195 68.928ZM349.675 52.992C346.091 52.992 342.987 54.016 340.363 56.064C337.739 58.048 336.011 61.152 335.179 65.376H363.499V64.608C363.179 61.216 361.643 58.432 358.891 56.256C356.203 54.08 353.131 52.992 349.675 52.992Z" fill="url(#paint0_linear)" fill-opacity="0.88"/>
<ellipse cx="87" cy="70.6875" rx="5" ry="7.6875" fill="url(#paint1_linear)" fill-opacity="0.88"/>
<ellipse cx="142" cy="70.6875" rx="5" ry="7.6875" fill="url(#paint2_linear)" fill-opacity="0.88"/>
<defs>
<linearGradient id="paint0_linear" x1="188.5" y1="0" x2="188.5" y2="123" gradientUnits="userSpaceOnUse">
<stop stop-color="#377DFF"/>
<stop offset="1" stop-color="#30DFEA"/>
</linearGradient>
<linearGradient id="paint1_linear" x1="87" y1="63" x2="87" y2="78.375" gradientUnits="userSpaceOnUse">
<stop stop-color="#377DFF"/>
<stop offset="1" stop-color="#30DFEA"/>
</linearGradient>
<linearGradient id="paint2_linear" x1="142" y1="63" x2="142" y2="78.375" gradientUnits="userSpaceOnUse">
<stop stop-color="#377DFF"/>
<stop offset="1" stop-color="#30DFEA"/>
</linearGradient>
</defs>
</svg>
