<svg width="415" height="71" viewBox="0 0 415 71" fill="none" xmlns="http://www.w3.org/2000/svg">
<path d="M25.5312 10L20.3281 10.9375L32.4219 51.8594L33.2656 55.6094H33.5469L34.3438 51.9531L46.4844 10.9375L41.3281 10V1.75H66.2656V10L60.5469 10.75L40.4375 70H26.375L6.21875 10.75L0.59375 10V1.75H25.5312V10ZM125.703 24.7656H115.531L114.125 15.6719C112.781 14.3281 111.078 13.2656 109.016 12.4844C106.984 11.7031 104.578 11.3125 101.797 11.3125C95.8594 11.3125 91.2812 13.4688 88.0625 17.7812C84.875 22.0938 83.2812 27.7188 83.2812 34.6562V37.0469C83.2812 43.9844 84.875 49.625 88.0625 53.9688C91.25 58.3125 95.75 60.4844 101.562 60.4844C104.25 60.4844 106.703 60.0938 108.922 59.3125C111.172 58.5312 112.906 57.4688 114.125 56.125L115.531 47.0312H125.703V60.5312C122.953 63.7188 119.438 66.2656 115.156 68.1719C110.906 70.0469 106.141 70.9844 100.859 70.9844C91.7031 70.9844 84.2031 67.8125 78.3594 61.4688C72.5156 55.125 69.5938 46.9844 69.5938 37.0469V34.75C69.5938 24.8438 72.5 16.7031 78.3125 10.3281C84.125 3.95312 91.6406 0.765625 100.859 0.765625C106.141 0.765625 110.906 1.73438 115.156 3.67188C119.406 5.57812 122.922 8.10938 125.703 11.2656V24.7656ZM186.219 1.75C193.969 1.75 200.047 3.53125 204.453 7.09375C208.859 10.625 211.062 15.5156 211.062 21.7656C211.062 25.2031 210.141 28.1875 208.297 30.7188C206.453 33.25 203.75 35.2969 200.188 36.8594C204.219 38.0469 207.109 40.0312 208.859 42.8125C210.641 45.5625 211.531 48.9844 211.531 53.0781V56.5469C211.531 58.0469 211.828 59.2188 212.422 60.0625C213.016 60.875 214 61.3594 215.375 61.5156L217.062 61.75V70H209.984C205.516 70 202.375 68.7969 200.562 66.3906C198.75 63.9844 197.844 60.875 197.844 57.0625V53.1719C197.844 49.8594 196.953 47.2656 195.172 45.3906C193.422 43.4844 190.938 42.4844 187.719 42.3906H176.516V60.3906L183.828 61.7969V70H155.562V61.7969L162.828 60.3906V11.4062L155.562 10V1.75H162.828H186.219ZM176.516 31.8438H185.984C189.797 31.8438 192.656 31.0312 194.562 29.4062C196.469 27.7812 197.422 25.4375 197.422 22.375C197.422 19.3125 196.469 16.875 194.562 15.0625C192.688 13.2188 189.906 12.2969 186.219 12.2969H176.516V31.8438ZM221.891 44.1719C221.891 36.6094 224 30.4219 228.219 25.6094C232.469 20.7656 238.328 18.3438 245.797 18.3438C253.297 18.3438 259.156 20.75 263.375 25.5625C267.625 30.375 269.75 36.5781 269.75 44.1719V45.1562C269.75 52.7812 267.625 59 263.375 63.8125C259.156 68.5938 253.328 70.9844 245.891 70.9844C238.359 70.9844 232.469 68.5938 228.219 63.8125C224 59 221.891 52.7812 221.891 45.1562V44.1719ZM235.578 45.1562C235.578 49.7812 236.391 53.5 238.016 56.3125C239.641 59.0938 242.266 60.4844 245.891 60.4844C249.422 60.4844 252 59.0781 253.625 56.2656C255.281 53.4531 256.109 49.75 256.109 45.1562V44.1719C256.109 39.6719 255.281 36 253.625 33.1562C251.969 30.3125 249.359 28.8906 245.797 28.8906C242.234 28.8906 239.641 30.3125 238.016 33.1562C236.391 36 235.578 39.6719 235.578 44.1719V45.1562ZM275.703 44.1719C275.703 36.6094 277.812 30.4219 282.031 25.6094C286.281 20.7656 292.141 18.3438 299.609 18.3438C307.109 18.3438 312.969 20.75 317.188 25.5625C321.438 30.375 323.562 36.5781 323.562 44.1719V45.1562C323.562 52.7812 321.438 59 317.188 63.8125C312.969 68.5938 307.141 70.9844 299.703 70.9844C292.172 70.9844 286.281 68.5938 282.031 63.8125C277.812 59 275.703 52.7812 275.703 45.1562V44.1719ZM289.391 45.1562C289.391 49.7812 290.203 53.5 291.828 56.3125C293.453 59.0938 296.078 60.4844 299.703 60.4844C303.234 60.4844 305.812 59.0781 307.438 56.2656C309.094 53.4531 309.922 49.75 309.922 45.1562V44.1719C309.922 39.6719 309.094 36 307.438 33.1562C305.781 30.3125 303.172 28.8906 299.609 28.8906C296.047 28.8906 293.453 30.3125 291.828 33.1562C290.203 36 289.391 39.6719 289.391 44.1719V45.1562ZM327.922 27.5312V19.2812H347.938L348.5 25.9844C350.125 23.5469 352.156 21.6719 354.594 20.3594C357.062 19.0156 359.906 18.3438 363.125 18.3438C366.375 18.3438 369.156 19.0625 371.469 20.5C373.781 21.9375 375.531 24.1094 376.719 27.0156C378.281 24.2969 380.312 22.1719 382.812 20.6406C385.312 19.1094 388.25 18.3438 391.625 18.3438C396.625 18.3438 400.562 20.0781 403.438 23.5469C406.344 26.9844 407.797 32.2344 407.797 39.2969V60.3906L414.406 61.7969V70H388.203V61.7969L394.109 60.3906V39.25C394.109 35.4062 393.484 32.7344 392.234 31.2344C390.984 29.7344 389.125 28.9844 386.656 28.9844C384.719 28.9844 383.031 29.4219 381.594 30.2969C380.188 31.1406 379.062 32.3281 378.219 33.8594C378.219 34.4531 378.234 34.9688 378.266 35.4062C378.297 35.8125 378.312 36.2344 378.312 36.6719V60.3906L383.844 61.7969V70H359.141V61.7969L364.672 60.3906V39.25C364.672 35.5 364.047 32.8594 362.797 31.3281C361.547 29.7656 359.672 28.9844 357.172 28.9844C355.328 28.9844 353.703 29.3438 352.297 30.0625C350.922 30.75 349.781 31.7344 348.875 33.0156V60.3906L354.781 61.7969V70H328.625V61.7969L335.234 60.3906V28.9375L327.922 27.5312Z" fill="url(#paint0_linear)"/>
<defs>
<linearGradient id="paint0_linear" x1="-25.3426" y1="32" x2="438.755" y2="32" gradientUnits="userSpaceOnUse">
<stop stop-color="#377DFF"/>
<stop offset="1" stop-color="#30DFEA"/>
</linearGradient>
</defs>
</svg>
